<svg width="14" height="16" viewBox="0 0 14 16" fill="none" xmlns="http://www.w3.org/2000/svg">
<path id="Vector" opacity="0.4" d="M14 11.25V0.75C14 0.334375 13.6656 0 13.25 0H3C1.34375 0 0 1.34375 0 3V13C0 14.6562 1.34375 16 3 16H13.25C13.6656 16 14 15.6656 14 15.25V14.75C14 14.5156 13.8906 14.3031 13.7219 14.1656C13.5906 13.6844 13.5906 12.3125 13.7219 11.8313C13.8906 11.6969 14 11.4844 14 11.25ZM4 4.1875C4 4.08437 4.08437 4 4.1875 4H10.8125C10.9156 4 11 4.08437 11 4.1875V4.8125C11 4.91563 10.9156 5 10.8125 5H4.1875C4.08437 5 4 4.91563 4 4.8125V4.1875ZM4 6.1875C4 6.08437 4.08437 6 4.1875 6H10.8125C10.9156 6 11 6.08437 11 6.1875V6.8125C11 6.91563 10.9156 7 10.8125 7H4.1875C4.08437 7 4 6.91563 4 6.8125V6.1875ZM11.9187 14H3C2.44688 14 2 13.5531 2 13C2 12.45 2.45 12 3 12H11.9187C11.8594 12.5344 11.8594 13.4656 11.9187 14Z" fill="#9FA2B4"/>
</svg>
