<svg width="16" height="12" viewBox="0 0 16 12" fill="none" xmlns="http://www.w3.org/2000/svg">
<path id="Vector" opacity="0.4" d="M2.4 5.2C3.2825 5.2 4 4.4825 4 3.6C4 2.7175 3.2825 2 2.4 2C1.5175 2 0.8 2.7175 0.8 3.6C0.8 4.4825 1.5175 5.2 2.4 5.2ZM13.6 5.2C14.4825 5.2 15.2 4.4825 15.2 3.6C15.2 2.7175 14.4825 2 13.6 2C12.7175 2 12 2.7175 12 3.6C12 4.4825 12.7175 5.2 13.6 5.2ZM14.4 6H12.8C12.36 6 11.9625 6.1775 11.6725 6.465C12.68 7.0175 13.395 8.015 13.55 9.2H15.2C15.6425 9.2 16 8.8425 16 8.4V7.6C16 6.7175 15.2825 6 14.4 6ZM8 6C9.5475 6 10.8 4.7475 10.8 3.2C10.8 1.6525 9.5475 0.400002 8 0.400002C6.4525 0.400002 5.2 1.6525 5.2 3.2C5.2 4.7475 6.4525 6 8 6ZM9.92 6.8H9.7125C9.1925 7.05 8.615 7.2 8 7.2C7.385 7.2 6.81 7.05 6.2875 6.8H6.08C4.49 6.8 3.2 8.09 3.2 9.68V10.4C3.2 11.0625 3.7375 11.6 4.4 11.6H11.6C12.2625 11.6 12.8 11.0625 12.8 10.4V9.68C12.8 8.09 11.51 6.8 9.92 6.8ZM4.3275 6.465C4.0375 6.1775 3.64 6 3.2 6H1.6C0.7175 6 0 6.7175 0 7.6V8.4C0 8.8425 0.3575 9.2 0.8 9.2H2.4475C2.605 8.015 3.32 7.0175 4.3275 6.465Z" fill="#9FA2B4"/>
</svg>
