<svg width="16" height="12" viewBox="0 0 16 12" fill="none" xmlns="http://www.w3.org/2000/svg">
<path id="Vector" opacity="0.4" d="M3.55556 3.33334H12.4444V8.66667H3.55556V3.33334ZM14.6667 6C14.6667 6.73639 15.2636 7.33334 16 7.33334V10C16 10.7364 15.4031 11.3333 14.6667 11.3333H1.33333C0.596944 11.3333 0 10.7364 0 10V7.33334C0.736389 7.33334 1.33333 6.73639 1.33333 6C1.33333 5.26362 0.736389 4.66667 0 4.66667V2.00001C0 1.26362 0.596944 0.666672 1.33333 0.666672H14.6667C15.4031 0.666672 16 1.26362 16 2.00001V4.66667C15.2636 4.66667 14.6667 5.26362 14.6667 6ZM13.3333 3.11112C13.3333 2.74292 13.0349 2.44445 12.6667 2.44445H3.33333C2.96514 2.44445 2.66667 2.74292 2.66667 3.11112V8.88889C2.66667 9.25709 2.96514 9.55556 3.33333 9.55556H12.6667C13.0349 9.55556 13.3333 9.25709 13.3333 8.88889V3.11112Z" fill="#9FA2B4"/>
</svg>
